<svg width="32" height="32" viewBox="0 0 32 32" fill="none" xmlns="http://www.w3.org/2000/svg">
<circle cx="16" cy="16" r="16" fill="#0077B6"/>
<path d="M23.5437 19.334L20.0436 17.6976C19.8941 17.6281 19.728 17.6134 19.5701 17.6559C19.4123 17.6983 19.2714 17.7955 19.1686 17.9328L17.6186 19.9988C15.186 18.7476 13.2283 16.6119 12.0813 13.9581L13.9751 12.2672C14.1013 12.1552 14.1905 12.0015 14.2295 11.8293C14.2684 11.657 14.2548 11.4757 14.1907 11.3126L12.6907 7.49436C12.6204 7.31859 12.4961 7.17507 12.3392 7.08857C12.1824 7.00206 12.0027 6.97798 11.8313 7.02049L8.58126 7.83868C8.416 7.88031 8.26855 7.98183 8.16298 8.12665C8.05742 8.27147 7.99996 8.45105 8 8.63608C8 17.3806 14.497 24.4545 22.5003 24.4545C22.6699 24.4547 22.8346 24.392 22.9674 24.2768C23.1002 24.1617 23.1933 24.0008 23.2315 23.8204L23.9815 20.2749C24.0202 20.087 23.9977 19.8903 23.9178 19.7185C23.8379 19.5468 23.7056 19.4108 23.5437 19.334Z" fill="white"/>
</svg>
